<svg xmlns="http://www.w3.org/2000/svg" viewBox="0 0 679.07 229.3"><defs><style>.cls-1{fill:#009688;}.cls-2{fill:none;stroke:#009688;stroke-linecap:round;stroke-linejoin:round;}</style></defs><title>ManingTechLogotipo</title><g id="Layer_2" data-name="Layer 2"><g id="Layer_2-2" data-name="Layer 2"><path class="cls-1" d="M175.53,227.8A121.8,121.8,0,0,0,241.07,122c.54-40.76-20.17-79.25-53.83-102-34.41-23.24-79.36-26.09-117-9.22-35.94,16.11-62.77,51-68.81,90-8,51.44,17.38,103.06,63.87,127.08,5.76,3,13,1.49,16.42-4.31,3.15-5.38,1.47-13.43-4.3-16.42-34-17.55-55.07-52.42-53.59-90.82,1.24-31.92,19.3-62.18,46.86-78.7C98.83,20.7,135,19.27,163.84,34.05a98,98,0,0,1,35.59,30.63,106.77,106.77,0,0,1,11,20.36,109.36,109.36,0,0,1,6,23.62,98,98,0,0,1-53,98.41c-5.76,3-7.45,11-4.31,16.42,3.42,5.85,10.64,7.28,16.42,4.31Z"/><path class="cls-1" d="M59.38,96.47v121c0,15.44,24,15.47,24,0v-121c0-15.44-24-15.47-24,0v121c0,15.44,24,15.47,24,0v-121C83.38,81,59.38,81,59.38,96.47Z"/><path class="cls-1" d="M126,132,79.87,88c-11.18-10.66-28.18,6.28-17,17l46.13,44c11.18,10.66,28.18-6.28,17-17L79.87,88c-11.18-10.66-28.18,6.28-17,17l46.13,44C120.2,159.58,137.2,142.64,126,132Z"/><path class="cls-1" d="M181.48,217.44v-121c0-10.1-13.31-16.22-20.49-8.48l-54.14,58.38c-10.49,11.31,6.44,28.32,17,17L178,105l-20.48-8.49v121c0,15.44,24,15.47,24,0Z"/><path class="cls-1" d="M278.9,85.05c.89,1.63,1.92,3.65,3.08,6s2.38,5,3.64,7.78,2.51,5.65,3.75,8.56l3.49,8.23,3.5-8.23q1.84-4.37,3.75-8.56t3.64-7.78c1.16-2.39,2.19-4.41,3.08-6h10.52q.75,5.11,1.37,11.45t1.12,13.19q.48,6.86.88,13.75t.71,13H310.17q-.23-7.49-.6-16.3t-1.11-17.78l-3,6.89q-1.64,3.78-3.24,7.56c-1.06,2.52-2.09,4.92-3.08,7.22l-2.53,5.89h-8.07L286,124c-1-2.3-2-4.7-3.09-7.22s-2.14-5-3.23-7.56l-3-6.89q-.75,9-1.11,17.78t-.6,16.3H263.78q.3-6.08.71-13t.88-13.75q.5-6.85,1.12-13.19t1.37-11.45Z"/><path class="cls-1" d="M345,96.39a25.58,25.58,0,0,1,8.15,1.11,12.7,12.7,0,0,1,5.22,3.19,11.63,11.63,0,0,1,2.78,5,24.51,24.51,0,0,1,.82,6.59v23c-1.58.35-3.78.75-6.6,1.22a63.1,63.1,0,0,1-10.22.71,32.77,32.77,0,0,1-6.86-.67,14.61,14.61,0,0,1-5.29-2.19,9.91,9.91,0,0,1-3.41-4,13.68,13.68,0,0,1-1.19-6,11.42,11.42,0,0,1,1.37-5.78,10.64,10.64,0,0,1,3.67-3.78,16.58,16.58,0,0,1,5.26-2,29.56,29.56,0,0,1,6.15-.63,35.81,35.81,0,0,1,3.82.19,16.29,16.29,0,0,1,2.7.48v-1a6.15,6.15,0,0,0-1.7-4.52c-1.14-1.13-3.11-1.7-5.93-1.7a36.67,36.67,0,0,0-5.56.41,23.9,23.9,0,0,0-4.74,1.14L332,98.24c.64-.19,1.45-.41,2.41-.63s2-.42,3.15-.59,2.33-.32,3.59-.44A37.15,37.15,0,0,1,345,96.39Zm.89,32.31c1.09,0,2.12,0,3.11-.08a21.45,21.45,0,0,0,2.37-.22V120a19.88,19.88,0,0,0-2-.3,22,22,0,0,0-2.44-.15,20.81,20.81,0,0,0-2.93.19,7.66,7.66,0,0,0-2.41.7,4.24,4.24,0,0,0-1.63,1.41,4,4,0,0,0-.59,2.22,3.8,3.8,0,0,0,1.74,3.6A9.69,9.69,0,0,0,345.88,128.7Z"/><path class="cls-1" d="M372,98.76a62.63,62.63,0,0,1,7.26-1.52,59.7,59.7,0,0,1,9.34-.7,22.84,22.84,0,0,1,8.26,1.29A12.42,12.42,0,0,1,402,101.5a14.33,14.33,0,0,1,2.75,5.63,30.24,30.24,0,0,1,.81,7.27v22h-11V115.73q0-5.34-1.41-7.56T387.89,106c-.79,0-1.63,0-2.52.11s-1.68.16-2.37.26V136.4H372Z"/><path class="cls-1" d="M427.68,86.16a6.08,6.08,0,0,1-2,4.78,7,7,0,0,1-9.27,0,6.8,6.8,0,0,1,0-9.55,7,7,0,0,1,9.27,0A6.07,6.07,0,0,1,427.68,86.16Zm-1,50.24h-11v-39h11Z"/><path class="cls-1" d="M437,98.76a61.73,61.73,0,0,1,7.26-1.52,59.48,59.48,0,0,1,9.33-.7,22.8,22.8,0,0,1,8.26,1.29,12.51,12.51,0,0,1,5.23,3.67,14.31,14.31,0,0,1,2.74,5.63,30.24,30.24,0,0,1,.81,7.27v22h-11V115.73q0-5.34-1.4-7.56c-.94-1.48-2.7-2.22-5.26-2.22-.79,0-1.63,0-2.52.11s-1.68.16-2.37.26V136.4H437Z"/><path class="cls-1" d="M514.3,131.51q0,9.56-4.86,14.19t-15,4.63a40.67,40.67,0,0,1-7.11-.63,44.49,44.49,0,0,1-6.6-1.66l1.93-9.27A30.71,30.71,0,0,0,494.59,141c3.16,0,5.39-.7,6.7-2.08a7.44,7.44,0,0,0,2-5.33v-1.41a18,18,0,0,1-3.67,1.22,19.61,19.61,0,0,1-4.11.41q-8.09,0-12.38-4.78t-4.3-13.37a21.86,21.86,0,0,1,1.34-7.82,16.55,16.55,0,0,1,3.89-6,17.26,17.26,0,0,1,6.26-3.89,24.09,24.09,0,0,1,8.37-1.37q2,0,4.11.18c1.41.13,2.81.29,4.19.49s2.71.43,4,.7,2.38.55,3.37.85Zm-24.23-15.85q0,9.25,7.48,9.26a10.93,10.93,0,0,0,3.19-.45,12.44,12.44,0,0,0,2.52-1V105.8c-.55-.1-1.19-.18-1.93-.26s-1.61-.11-2.59-.11q-4.38,0-6.52,2.89A11.92,11.92,0,0,0,490.07,115.66Z"/><path class="cls-2" d="M563.5,85.05v9.86H548V136.4H536.45V94.91H521V85.05Z"/><path class="cls-2" d="M562.75,117.21a23.9,23.9,0,0,1,1.6-9.08,19.43,19.43,0,0,1,4.18-6.48,17.43,17.43,0,0,1,6-3.93,18.68,18.68,0,0,1,6.93-1.33q8.3,0,13.11,5.08t4.82,14.93c0,.64,0,1.34-.08,2.11s-.1,1.44-.14,2h-25a7.32,7.32,0,0,0,3.19,5.4,12.74,12.74,0,0,0,7.56,2,31.93,31.93,0,0,0,6-.56,22.81,22.81,0,0,0,4.78-1.37l1.48,9a14.1,14.1,0,0,1-2.37.89,29.8,29.8,0,0,1-3.3.78c-1.21.22-2.5.41-3.89.56a38.33,38.33,0,0,1-4.15.22,24.55,24.55,0,0,1-9.15-1.56,17.61,17.61,0,0,1-6.44-4.26,16.75,16.75,0,0,1-3.78-6.41A25.21,25.21,0,0,1,562.75,117.21ZM588.69,113a11.4,11.4,0,0,0-.48-2.74,7.1,7.1,0,0,0-1.26-2.37,6.76,6.76,0,0,0-2.15-1.71,7.07,7.07,0,0,0-3.22-.67,7.41,7.41,0,0,0-3.19.63,6.57,6.57,0,0,0-2.22,1.67,7.34,7.34,0,0,0-1.37,2.41,15.13,15.13,0,0,0-.71,2.78Z"/><path class="cls-2" d="M606,116.91a22.81,22.81,0,0,1,1.37-8A18.62,18.62,0,0,1,617.66,98a20.75,20.75,0,0,1,8.45-1.63,27.27,27.27,0,0,1,5.7.56,27.83,27.83,0,0,1,5,1.59l-2.3,8.82a27.34,27.34,0,0,0-3.4-1,17.65,17.65,0,0,0-4.15-.45c-3.26,0-5.7,1-7.3,3a12.5,12.5,0,0,0-2.41,8q0,5.27,2.26,8.16c1.51,1.92,4.14,2.89,7.89,2.89a26.84,26.84,0,0,0,4.3-.38A18,18,0,0,0,636,126.4l1.56,9a26.63,26.63,0,0,1-4.82,1.41,32.1,32.1,0,0,1-6.37.59,24,24,0,0,1-9.19-1.59,17.32,17.32,0,0,1-6.33-4.34,16.81,16.81,0,0,1-3.63-6.48A27.43,27.43,0,0,1,606,116.91Z"/><path class="cls-2" d="M644.93,136.4V80.68l11-1.78V97.58a21.81,21.81,0,0,1,2.85-.71,18,18,0,0,1,3.37-.33,20.94,20.94,0,0,1,7.89,1.29,12.32,12.32,0,0,1,5,3.67,14.21,14.21,0,0,1,2.67,5.63,31.35,31.35,0,0,1,.78,7.27v22h-11V115.73q0-5.34-1.37-7.56T661.08,106a14.42,14.42,0,0,0-2.78.26c-.86.17-1.64.36-2.33.55V136.4Z"/></g></g></svg>