<svg xmlns="http://www.w3.org/2000/svg" viewBox="0 0 921.61 877.56"><defs><style>.cls-1{fill:#009688;}</style></defs><title>ManingTechLogo</title><g id="Layer_2" data-name="Layer 2"><g id="Camada_1" data-name="Camada 1"><path class="cls-1" d="M671.25,871c72.54-36.91,134.24-94.17,178.25-162.48,45.26-70.26,69.85-153.47,72-236.89,2-78.68-17-157.27-53.62-226.84-35.27-67.1-88-124.06-150.48-166.68C653.17,34.26,578.16,9.35,501.1,1.85,461-2.06,421.07.5,381.38,6.92c-38.49,6.22-75,18.46-110.66,34.08-35,15.35-66.69,35.82-96.79,59.27a420,420,0,0,0-72.35,71.89c-23.55,30-44.23,61.51-59.81,96.43C25.94,304.08,13.54,340.59,7.06,379-7.09,462.86-.53,550.46,31.77,629.63,40.49,651,50,671.94,61.57,691.93s24.85,38.27,38.94,56.33c26,33.33,56.9,61.54,90.85,86.61A418.13,418.13,0,0,0,249.93,871c11.5,5.86,24.26,8.34,37,4.84,11.13-3.07,23.2-11.67,28.68-22.06,5.89-11.14,8.84-24.63,4.84-37-3.72-11.5-10.93-23-22.06-28.68a421.39,421.39,0,0,1-65.64-41.45l9.71,7.51a421,421,0,0,1-75-74.93l7.5,9.72a418.5,418.5,0,0,1-53.77-92.14l4.84,11.47A416.14,416.14,0,0,1,97.47,502.92l1.72,12.76a422.59,422.59,0,0,1,.1-110.37l-1.71,12.76a415.48,415.48,0,0,1,28.75-105.18l-4.84,11.47a417.84,417.84,0,0,1,53.87-92l-7.51,9.71a420.92,420.92,0,0,1,74-74l-9.71,7.5a417.8,417.8,0,0,1,92-53.86l-11.47,4.84A415.48,415.48,0,0,1,417.77,97.88L405,99.59a422.2,422.2,0,0,1,111.17,0l-12.76-1.71A415.48,415.48,0,0,1,608.6,126.63l-11.47-4.84a417.8,417.8,0,0,1,92,53.86l-9.71-7.5a420.92,420.92,0,0,1,74,74l-7.5-9.71a417.8,417.8,0,0,1,53.86,92l-4.84-11.47a415.48,415.48,0,0,1,28.75,105.18l-1.71-12.76a422.71,422.71,0,0,1,0,111.35l1.72-12.76a416.26,416.26,0,0,1-28.41,104.26L800,596.69a418.3,418.3,0,0,1-54,92.44l7.51-9.72a420.65,420.65,0,0,1-74.18,74.23l9.72-7.5a421.47,421.47,0,0,1-66.29,41.94c-10.37,5.27-19,17.73-22.06,28.68-3.16,11.49-1.73,26.79,4.84,37S622,873,634.27,875.81c13,3,25,1.25,37-4.84Z"/><path class="cls-1" d="M226.16,369.73V773.11c0,18.54-.25,37.1,0,55.64v.78a49.5,49.5,0,0,0,14.06,33.94c8.32,8.32,22,14.59,33.94,14.06,26-1.17,48-21.09,48-48V426.15c0-18.54.25-37.1,0-55.64,0-.26,0-.52,0-.78a49.53,49.53,0,0,0-14.06-33.94c-8.33-8.33-22-14.6-33.94-14.06-26,1.17-48,21.09-48,48V773.11c0,18.54-.25,37.1,0,55.64v.78a49.5,49.5,0,0,0,14.06,33.94c8.32,8.32,22,14.59,33.94,14.06,26-1.17,48-21.09,48-48V426.15c0-18.54.25-37.1,0-55.64,0-.26,0-.52,0-.78a49.53,49.53,0,0,0-14.06-33.94c-8.33-8.33-22-14.6-33.94-14.06C248.15,322.9,226.16,342.82,226.16,369.73Z"/><path class="cls-1" d="M483.44,502.91l-59.23-56.45-94.43-90L308.1,335.79c-9.05-8.62-21.33-14.06-33.94-14.06-11.78,0-25.84,5.23-33.94,14.06-8.4,9.15-14.63,21.16-14.06,33.94.56,12.56,4.73,25,14.06,33.94l59.23,56.46,94.42,90,21.69,20.66c9.05,8.63,21.33,14.06,33.94,14.06,11.77,0,25.84-5.23,33.94-14.06,8.4-9.14,14.63-21.15,14.06-33.94-.56-12.55-4.73-25.05-14.06-33.94l-59.23-56.45-94.43-90L308.1,335.79c-9.05-8.62-21.33-14.06-33.94-14.06-11.78,0-25.84,5.23-33.94,14.06-8.4,9.15-14.63,21.16-14.06,33.94.56,12.56,4.73,25,14.06,33.94l59.23,56.46,94.42,90,21.69,20.66c9.05,8.63,21.33,14.06,33.94,14.06,11.77,0,25.84-5.23,33.94-14.06,8.4-9.14,14.63-21.15,14.06-33.94C496.94,524.3,492.77,511.8,483.44,502.91Z"/><path class="cls-1" d="M695,829.53V426.15c0-18.53.42-37.11,0-55.64v-.78c0-19.2-12.06-36.5-29.5-43.87-17.09-7.21-39.34-4.19-52.44,9.93l-69.45,74.89L432.85,530.15,407.3,557.71c-8.57,9.24-14.06,21.15-14.06,33.94,0,11.77,5.23,25.83,14.06,33.94,9.15,8.4,21.16,14.63,33.94,14.06,12.45-.56,25.22-4.66,33.94-14.06l69.45-74.89L655.42,431.23,681,403.67l-82-33.94V773.11c0,18.54-.25,37.1,0,55.64v.78a49.48,49.48,0,0,0,14.06,33.94c8.32,8.32,22,14.59,33.94,14.06,26-1.17,48-21.09,48-48Z"/></g></g></svg>