<?xml version="1.0" encoding="utf-8"?>
<!-- Generator: Adobe Illustrator 19.0.0, SVG Export Plug-In . SVG Version: 6.00 Build 0)  -->
<svg version="1.1" id="Camada_1" xmlns="http://www.w3.org/2000/svg" xmlns:xlink="http://www.w3.org/1999/xlink" x="0px" y="0px"
	 viewBox="0 0 1200 1200" style="enable-background:new 0 0 1200 1200;" xml:space="preserve">
<style type="text/css">
	.st0{fill:#009688;}
</style>
<g id="XMLID_2_">
	<g id="XMLID_75_">
		<path id="XMLID_5_" class="st0" d="M112,523.3c2.4,4.4,5.2,9.8,8.3,16.3c3.1,6.5,6.4,13.5,9.8,21c3.4,7.5,6.8,15.2,10.1,23.1
			c3.3,7.9,6.5,15.3,9.4,22.2c2.9-6.9,6.1-14.3,9.4-22.2c3.3-7.9,6.7-15.6,10.1-23.1c3.4-7.5,6.7-14.5,9.8-21
			c3.1-6.5,5.9-11.9,8.3-16.3h28.4c1.3,9.2,2.6,19.5,3.7,30.9c1.1,11.4,2.1,23.3,3,35.6c0.9,12.3,1.7,24.7,2.4,37.1
			c0.7,12.4,1.4,24.1,1.9,35h-30.4c-0.4-13.5-0.9-28.1-1.6-44c-0.7-15.9-1.7-31.9-3-48c-2.4,5.6-5.1,11.8-8,18.6
			c-2.9,6.8-5.9,13.6-8.7,20.4c-2.9,6.8-5.6,13.3-8.3,19.5c-2.7,6.2-5,11.5-6.8,15.9h-21.8c-1.9-4.4-4.1-9.7-6.8-15.9
			c-2.7-6.2-5.5-12.7-8.3-19.5c-2.9-6.8-5.8-13.6-8.7-20.4c-2.9-6.8-5.6-13-8-18.6c-1.3,16.1-2.3,32.1-3,48
			c-0.7,15.9-1.2,30.5-1.6,44H71.2c0.5-10.9,1.2-22.6,1.9-35c0.7-12.4,1.5-24.8,2.4-37.1c0.9-12.3,1.9-24.2,3-35.6
			c1.1-11.4,2.4-21.7,3.7-30.9H112z"/>
		<path id="XMLID_7_" d="M226.8,662.4h-30.4l-0.5-0.5c-0.4-13.3-0.9-28.1-1.6-44c-0.6-15.1-1.6-30.6-2.8-46
			c-2.2,5.1-4.6,10.7-7.2,16.8c-2.9,6.8-5.9,13.7-8.7,20.4c-2.9,6.8-5.7,13.4-8.3,19.5c-2.7,6.2-4.9,11.5-6.8,15.9l-0.5,0.3h-21.8
			l-0.5-0.3c-1.9-4.4-4.1-9.7-6.8-15.9c-2.8-6.4-5.6-13-8.3-19.5c-2.8-6.7-5.8-13.6-8.7-20.4c-2.6-6.1-5-11.6-7.2-16.8
			c-1.2,15.4-2.2,30.8-2.8,46c-0.7,15.6-1.2,30.4-1.6,44l-0.5,0.5H71.2l-0.5-0.5c0.5-10.8,1.2-22.5,1.9-35
			c0.7-12.3,1.5-24.8,2.4-37.1c0.9-12.3,1.9-24.3,3-35.6c1.1-11.3,2.4-21.7,3.7-30.9l0.5-0.4H112l0.4,0.3c2.4,4.4,5.2,9.8,8.3,16.3
			c3.1,6.5,6.4,13.5,9.8,21c3.4,7.5,6.8,15.2,10.1,23.1l9,21.1c2.8-6.6,5.8-13.7,9-21.1c3.3-7.8,6.7-15.6,10.1-23.1
			c3.4-7.5,6.7-14.6,9.8-21c3.1-6.4,5.9-11.9,8.3-16.3l0.4-0.3h28.4l0.5,0.4c1.3,9.2,2.6,19.6,3.7,30.9c1.1,11.3,2.1,23.3,3,35.6
			c0.9,12.3,1.7,24.7,2.4,37.1c0.7,12.4,1.4,24.1,1.9,35L226.8,662.4z M196.9,661.4h29.4c-0.5-10.7-1.2-22.3-1.9-34.5
			c-0.7-12.4-1.5-24.8-2.4-37.1c-0.9-12.3-1.9-24.2-3-35.6c-1.1-11.1-2.3-21.4-3.6-30.4h-27.7c-2.4,4.3-5.1,9.7-8.2,16
			c-3.1,6.4-6.4,13.4-9.8,21c-3.4,7.5-6.8,15.3-10.1,23.1c-3.3,7.9-6.5,15.3-9.4,22.2h-0.9l-9.4-22.2c-3.3-7.9-6.7-15.6-10.1-23.1
			c-3.4-7.5-6.7-14.5-9.8-21c-3.1-6.3-5.8-11.7-8.2-16H82.6c-1.3,9.1-2.5,19.3-3.6,30.4c-1.1,11.3-2.1,23.3-3,35.6
			c-0.9,12.3-1.7,24.8-2.4,37.1c-0.7,12.3-1.4,23.8-1.9,34.5h29.4c0.4-13.4,0.9-28.1,1.6-43.5c0.7-15.8,1.7-32,3-48l1-0.2
			c2.4,5.6,5.1,11.8,8,18.6c3,6.8,5.9,13.7,8.7,20.4c2.8,6.5,5.6,13.1,8.3,19.5c2.6,6.1,4.8,11.3,6.7,15.6h21.1
			c1.8-4.3,4.1-9.5,6.7-15.6c2.6-6.1,5.4-12.7,8.3-19.5c2.9-6.7,5.8-13.6,8.7-20.4c2.9-6.8,5.6-13,8-18.6l1,0.2
			c1.3,16.1,2.3,32.2,3,48C196,633.5,196.5,648.2,196.9,661.4z"/>
	</g>
	<g id="XMLID_72_">
		<path id="XMLID_8_" class="st0" d="M290.4,553.9c8.8,0,16.1,1,22,3c5.9,2,10.6,4.9,14.1,8.6c3.5,3.7,6,8.3,7.5,13.6
			c1.5,5.3,2.2,11.3,2.2,17.8v62c-4.3,0.9-10.2,2-17.8,3.3c-7.6,1.3-16.8,1.9-27.6,1.9c-6.8,0-13-0.6-18.5-1.8
			c-5.5-1.2-10.3-3.2-14.3-5.9c-4-2.7-7.1-6.3-9.2-10.7c-2.1-4.4-3.2-9.8-3.2-16.2c0-6.1,1.2-11.3,3.7-15.6
			c2.5-4.3,5.8-7.7,9.9-10.2c4.1-2.5,8.9-4.4,14.2-5.5c5.3-1.1,10.9-1.7,16.6-1.7c3.9,0,7.3,0.2,10.3,0.5c3,0.3,5.4,0.8,7.3,1.3
			v-2.8c0-5.1-1.5-9.1-4.6-12.2c-3.1-3.1-8.4-4.6-16-4.6c-5.1,0-10.1,0.4-15,1.1c-4.9,0.7-9.2,1.8-12.8,3.1l-3.8-24
			c1.7-0.5,3.9-1.1,6.5-1.7c2.6-0.6,5.4-1.1,8.5-1.6c3.1-0.5,6.3-0.9,9.7-1.2C283.5,554,286.9,553.9,290.4,553.9z M292.8,641.1
			c2.9,0,5.7-0.1,8.4-0.2c2.7-0.1,4.8-0.3,6.4-0.6v-22.6c-1.2-0.3-3-0.5-5.4-0.8c-2.4-0.3-4.6-0.4-6.6-0.4c-2.8,0-5.4,0.2-7.9,0.5
			c-2.5,0.3-4.6,1-6.5,1.9c-1.9,0.9-3.3,2.2-4.4,3.8c-1.1,1.6-1.6,3.6-1.6,6c0,4.7,1.6,7.9,4.7,9.7
			C283,640.2,287.3,641.1,292.8,641.1z"/>
		<path id="XMLID_67_" d="M290.8,664.6c-6.8,0-13.1-0.6-18.6-1.8c-5.6-1.2-10.4-3.2-14.5-6c-4.1-2.8-7.2-6.4-9.4-10.9
			c-2.2-4.4-3.3-10-3.3-16.4c0-6.2,1.3-11.5,3.8-15.9c2.5-4.3,5.9-7.8,10.1-10.4c4.2-2.5,9-4.4,14.4-5.6c5.4-1.1,11-1.7,16.7-1.7
			c3.9,0,7.3,0.2,10.4,0.5c2.7,0.3,4.9,0.7,6.7,1.1v-2.1c0-4.9-1.5-8.9-4.5-11.8c-3-3-8.2-4.5-15.6-4.5c-5,0-10,0.4-14.9,1.1
			c-4.9,0.7-9.1,1.8-12.7,3.1l-0.7-0.4l-3.8-24l0.3-0.6c1.8-0.5,4-1.1,6.5-1.7c2.6-0.6,5.5-1.1,8.5-1.6c3.1-0.5,6.3-0.9,9.7-1.2
			c3.4-0.3,6.9-0.5,10.3-0.5c8.8,0,16.3,1,22.2,3c5.9,2,10.7,5,14.3,8.7c3.6,3.8,6.1,8.4,7.6,13.8c1.5,5.4,2.2,11.4,2.2,17.9v62
			l-0.4,0.5c-4.3,0.9-10.3,2-17.8,3.3C310.9,663.9,301.6,664.6,290.8,664.6z M290,597c-5.7,0-11.2,0.6-16.5,1.7
			c-5.3,1.1-10,2.9-14,5.4c-4,2.5-7.3,5.8-9.7,10c-2.4,4.2-3.6,9.3-3.6,15.4c0,6.3,1.1,11.7,3.1,16c2.1,4.3,5.1,7.8,9,10.5
			c3.9,2.7,8.7,4.6,14.1,5.8c5.5,1.2,11.7,1.8,18.4,1.8c10.7,0,20-0.6,27.5-1.9c7.3-1.2,13.2-2.3,17.4-3.2v-61.6
			c0-6.5-0.7-12.4-2.2-17.7c-1.4-5.2-3.9-9.7-7.4-13.4c-3.5-3.7-8.1-6.5-13.9-8.5c-5.8-2-13.1-3-21.8-3c-3.4,0-6.9,0.2-10.3,0.5
			c-3.4,0.3-6.6,0.7-9.7,1.2c-3.1,0.5-5.9,1-8.5,1.6c-2.4,0.5-4.4,1.1-6.1,1.6l3.6,23c3.5-1.2,7.6-2.2,12.3-2.9
			c4.9-0.7,10-1.1,15.1-1.1c7.7,0,13.2,1.6,16.4,4.7c3.1,3.2,4.7,7.4,4.7,12.6v2.8l-0.6,0.5c-1.8-0.5-4.3-1-7.2-1.3
			C297.3,597.1,293.8,597,290,597z M292.8,641.6c-5.5,0-10-0.9-13.1-2.8c-3.3-1.9-5-5.3-5-10.1c0-2.5,0.6-4.6,1.7-6.3
			c1.1-1.7,2.7-3,4.6-4c1.9-1,4.1-1.6,6.7-1.9c2.5-0.3,5.2-0.5,8-0.5c2,0,4.2,0.1,6.7,0.4c2.5,0.3,4.2,0.5,5.5,0.8l0.4,0.5v22.6
			l-0.4,0.5c-1.6,0.3-3.8,0.5-6.5,0.6C298.6,641.5,295.7,641.6,292.8,641.6z M295.6,617c-2.7,0-5.4,0.2-7.8,0.5
			c-2.4,0.3-4.5,0.9-6.3,1.9c-1.8,0.9-3.2,2.1-4.2,3.6c-1,1.5-1.5,3.4-1.5,5.7c0,4.5,1.5,7.5,4.4,9.3c3,1.7,7.3,2.6,12.7,2.6
			c2.9,0,5.7-0.1,8.4-0.2c2.4-0.1,4.4-0.3,5.9-0.5v-21.8c-1.2-0.2-2.8-0.5-5-0.7C299.8,617.1,297.6,617,295.6,617z"/>
	</g>
	<g id="XMLID_65_">
		<path id="XMLID_10_" class="st0" d="M363.2,560.3c5.1-1.5,11.6-2.8,19.6-4.1c8-1.3,16.4-1.9,25.2-1.9c8.9,0,16.4,1.2,22.3,3.5
			c5.9,2.3,10.6,5.6,14.1,9.9c3.5,4.3,5.9,9.3,7.4,15.2c1.5,5.9,2.2,12.4,2.2,19.6v59.4h-29.8v-55.8c0-9.6-1.3-16.4-3.8-20.4
			c-2.5-4-7.3-6-14.2-6c-2.1,0-4.4,0.1-6.8,0.3c-2.4,0.2-4.5,0.4-6.4,0.7v81.2h-29.8V560.3z"/>
		<path id="XMLID_12_" d="M454,662.4h-29.8l-0.5-0.5v-55.8c0-9.5-1.3-16.2-3.7-20.1c-2.4-3.8-7.1-5.8-13.8-5.8
			c-2.1,0-4.4,0.1-6.8,0.3c-2.2,0.2-4.2,0.4-5.9,0.6v80.8l-0.5,0.5h-29.8l-0.5-0.5V560.3l0.4-0.5c5.1-1.5,11.7-2.8,19.7-4.1
			c8-1.3,16.5-1.9,25.3-1.9c8.9,0,16.5,1.2,22.5,3.5c6,2.4,10.8,5.7,14.3,10c3.5,4.3,6,9.5,7.5,15.4c1.5,5.9,2.2,12.5,2.2,19.7v59.4
			L454,662.4z M424.7,661.4h28.8v-58.9c0-7.1-0.7-13.7-2.2-19.5c-1.4-5.8-3.9-10.8-7.3-15c-3.4-4.2-8.1-7.5-13.9-9.7
			c-5.9-2.3-13.3-3.5-22.1-3.5c-8.7,0-17.2,0.6-25.1,1.9c-7.8,1.2-14.2,2.6-19.2,4v100.7h28.8v-80.7l0.4-0.5c1.9-0.3,4-0.5,6.4-0.7
			c2.4-0.2,4.7-0.3,6.8-0.3c7.1,0,12,2.1,14.6,6.2c2.6,4.1,3.9,11,3.9,20.7V661.4z"/>
	</g>
	<g id="XMLID_62_">
		<path id="XMLID_13_" class="st0" d="M513.6,526.3c0,5.5-1.8,9.8-5.3,12.9c-3.5,3.1-7.7,4.7-12.5,4.7c-4.8,0-9-1.6-12.5-4.7
			c-3.5-3.1-5.3-7.4-5.3-12.9c0-5.5,1.8-9.8,5.3-12.9c3.5-3.1,7.7-4.7,12.5-4.7c4.8,0,9,1.6,12.5,4.7
			C511.8,516.5,513.6,520.8,513.6,526.3z M510.8,661.9H481V556.7h29.8V661.9z"/>
		<path id="XMLID_57_" d="M510.8,662.4H481l-0.5-0.5V556.7l0.5-0.5h29.8l0.5,0.5v105.2L510.8,662.4z M481.5,661.4h28.8V557.2h-28.8
			V661.4z M495.8,544.4c-4.9,0-9.2-1.6-12.8-4.8c-3.6-3.2-5.5-7.7-5.5-13.3c0-5.6,1.8-10.1,5.5-13.3c3.6-3.2,7.9-4.8,12.8-4.8
			c4.9,0,9.2,1.6,12.8,4.8c3.6,3.2,5.5,7.7,5.5,13.3c0,5.6-1.8,10.1-5.5,13.3C505,542.7,500.7,544.4,495.8,544.4z M495.8,509.2
			c-4.7,0-8.7,1.5-12.2,4.6c-3.4,3-5.1,7.2-5.1,12.5c0,5.3,1.7,9.5,5.1,12.5c3.4,3,7.5,4.6,12.2,4.6c4.7,0,8.7-1.5,12.2-4.6
			c3.4-3,5.1-7.2,5.1-12.5c0-5.3-1.7-9.5-5.1-12.5C504.5,510.7,500.4,509.2,495.8,509.2z"/>
	</g>
	<g id="XMLID_55_">
		<path id="XMLID_15_" class="st0" d="M538.8,560.3c5.1-1.5,11.6-2.8,19.6-4.1c8-1.3,16.4-1.9,25.2-1.9c8.9,0,16.4,1.2,22.3,3.5
			c5.9,2.3,10.6,5.6,14.1,9.9c3.5,4.3,5.9,9.3,7.4,15.2c1.5,5.9,2.2,12.4,2.2,19.6v59.4h-29.8v-55.8c0-9.6-1.3-16.4-3.8-20.4
			c-2.5-4-7.3-6-14.2-6c-2.1,0-4.4,0.1-6.8,0.3c-2.4,0.2-4.5,0.4-6.4,0.7v81.2h-29.8V560.3z"/>
		<path id="XMLID_17_" d="M629.6,662.4h-29.8l-0.5-0.5v-55.8c0-9.5-1.3-16.2-3.7-20.1c-2.4-3.8-7.1-5.8-13.8-5.8
			c-2.1,0-4.4,0.1-6.8,0.3c-2.2,0.2-4.2,0.4-5.9,0.6v80.8l-0.5,0.5h-29.8l-0.5-0.5V560.3l0.4-0.5c5.1-1.5,11.7-2.8,19.7-4.1
			c8-1.3,16.5-1.9,25.3-1.9c8.9,0,16.5,1.2,22.5,3.5c6,2.4,10.8,5.7,14.3,10c3.5,4.3,6,9.5,7.5,15.4c1.5,5.9,2.2,12.5,2.2,19.7v59.4
			L629.6,662.4z M600.3,661.4h28.8v-58.9c0-7.1-0.7-13.7-2.2-19.5c-1.4-5.8-3.9-10.8-7.3-15c-3.4-4.2-8.1-7.5-13.9-9.8
			c-5.9-2.3-13.3-3.5-22.1-3.5c-8.7,0-17.2,0.6-25.1,1.9c-7.8,1.2-14.2,2.6-19.2,4v100.7h28.8v-80.7l0.4-0.5c1.9-0.3,4-0.5,6.4-0.7
			c2.4-0.2,4.7-0.3,6.8-0.3c7.1,0,12,2.1,14.6,6.2c2.6,4.1,3.9,11,3.9,20.7V661.4z"/>
	</g>
	<g id="XMLID_52_">
		<path id="XMLID_18_" class="st0" d="M747.4,648.7c0,17.2-4.4,30-13.1,38.3c-8.7,8.3-22.2,12.5-40.5,12.5c-6.4,0-12.8-0.6-19.2-1.7
			c-6.4-1.1-12.3-2.6-17.8-4.5l5.2-25c4.7,1.9,9.6,3.3,14.7,4.4c5.1,1.1,11,1.6,17.5,1.6c8.5,0,14.6-1.9,18.1-5.6
			c3.5-3.7,5.3-8.5,5.3-14.4v-3.8c-3.2,1.5-6.5,2.6-9.9,3.3c-3.4,0.7-7.1,1.1-11.1,1.1c-14.5,0-25.7-4.3-33.4-12.9
			c-7.7-8.6-11.6-20.6-11.6-36.1c0-7.7,1.2-14.8,3.6-21.1c2.4-6.3,5.9-11.8,10.5-16.3c4.6-4.5,10.2-8,16.9-10.5
			c6.7-2.5,14.2-3.7,22.6-3.7c3.6,0,7.3,0.2,11.1,0.5c3.8,0.3,7.6,0.8,11.3,1.3c3.7,0.5,7.3,1.2,10.7,1.9c3.4,0.7,6.4,1.5,9.1,2.3
			V648.7z M682,605.9c0,16.7,6.7,25,20.2,25c3.1,0,5.9-0.4,8.6-1.2c2.7-0.8,4.9-1.7,6.8-2.8v-47.6c-1.5-0.3-3.2-0.5-5.2-0.7
			c-2-0.2-4.3-0.3-7-0.3c-7.9,0-13.7,2.6-17.6,7.8C683.9,591.3,682,597.9,682,605.9z"/>
		<path id="XMLID_47_" d="M693.8,700c-6.4,0-12.9-0.6-19.3-1.7c-6.4-1.1-12.4-2.7-17.9-4.5l-0.3-0.6l5.2-25l0.7-0.4
			c4.6,1.8,9.5,3.3,14.6,4.4c5.1,1.1,10.9,1.6,17.4,1.6c8.3,0,14.3-1.8,17.7-5.4c3.4-3.6,5.2-8.4,5.2-14.1v-3c-3,1.3-6.1,2.3-9.3,3
			c-3.4,0.7-7.2,1.1-11.2,1.1c-14.6,0-26-4.4-33.8-13.1c-7.8-8.7-11.7-20.9-11.7-36.4c0-7.8,1.2-14.9,3.6-21.3
			c2.4-6.4,6-11.9,10.6-16.5c4.6-4.6,10.4-8.1,17.1-10.6c6.7-2.5,14.4-3.7,22.8-3.7c3.6,0,7.3,0.2,11.1,0.5
			c3.8,0.3,7.6,0.8,11.3,1.3c3.7,0.5,7.3,1.2,10.7,1.9c3.4,0.7,6.5,1.5,9.1,2.3l0.4,0.5v88.4c0,17.3-4.5,30.3-13.3,38.7
			C725.8,695.7,712.1,700,693.8,700z M657.4,692.9c5.3,1.8,11.1,3.2,17.3,4.3c6.4,1.1,12.8,1.7,19.1,1.7c18,0,31.6-4.2,40.2-12.4
			c8.6-8.2,12.9-21,12.9-37.9v-88c-2.6-0.8-5.5-1.5-8.7-2.2c-3.4-0.7-7-1.4-10.7-1.9c-3.7-0.5-7.5-1-11.3-1.3
			c-3.8-0.3-7.5-0.5-11.1-0.5c-8.3,0-15.8,1.2-22.4,3.7c-6.6,2.4-12.2,5.9-16.7,10.4c-4.5,4.5-8,9.9-10.4,16.1
			c-2.4,6.2-3.6,13.3-3.6,20.9c0,15.3,3.9,27.3,11.5,35.8c7.6,8.4,18.7,12.7,33,12.7c4,0,7.7-0.4,11-1.1c3.3-0.7,6.6-1.8,9.8-3.3
			l0.7,0.5v3.8c0,6-1.8,10.9-5.4,14.7c-3.6,3.8-9.8,5.8-18.5,5.8c-6.5,0-12.5-0.5-17.6-1.6c-4.9-1-9.7-2.4-14.2-4.2L657.4,692.9z
			 M702.2,631.4c-13.7,0-20.7-8.6-20.7-25.5c0-8.1,2-14.8,5.9-20.1c3.9-5.3,10-8,18-8c2.7,0,5,0.1,7,0.3c2,0.2,3.7,0.4,5.2,0.7
			l0.4,0.5v47.6l-0.3,0.4c-1.9,1.1-4.2,2-6.9,2.8C708.2,631,705.3,631.4,702.2,631.4z M705.4,578.8c-7.7,0-13.5,2.6-17.2,7.6
			c-3.8,5.1-5.7,11.6-5.7,19.5c0,16.5,6.4,24.5,19.7,24.5c3,0,5.8-0.4,8.5-1.2c2.5-0.8,4.7-1.6,6.4-2.6v-46.9
			c-1.4-0.2-3-0.4-4.8-0.6C710.4,578.9,708,578.8,705.4,578.8z"/>
	</g>
	<g id="XMLID_45_">
		<path id="XMLID_20_" class="st0" d="M839.2,523.3v26.6h-41.8v112h-31.2v-112h-41.8v-26.6H839.2z"/>
		<path id="XMLID_22_" d="M797.4,662.4h-31.2l-0.5-0.5V550.4h-41.3l-0.5-0.5v-26.6l0.5-0.5h114.8l0.5,0.5v26.6l-0.5,0.5h-41.3v111.5
			L797.4,662.4z M766.7,661.4h30.2V549.9l0.5-0.5h41.3v-25.6H724.9v25.6h41.3l0.5,0.5V661.4z"/>
	</g>
	<g id="XMLID_42_">
		<path id="XMLID_23_" class="st0" d="M822.3,626.2c-3.1-8.8-4.5-17-4.1-24.5c0.4-7.6,2-14.3,4.8-20.3c2.8-6,6.7-11.1,11.6-15.4
			c4.9-4.3,10.4-7.5,16.4-9.7c14.1-5,26.7-4.6,37.9,1.1c11.2,5.7,19.8,16.9,25.7,33.6c0.6,1.6,1.2,3.4,1.7,5.4
			c0.6,2,1.1,3.8,1.5,5.3l-63.7,22.6c2.7,5.6,7,9.2,13,10.9c6,1.7,13,1.1,21-1.7c5.2-1.8,10-4.1,14.7-6.8c4.6-2.7,8.3-5.3,10.9-7.8
			l11.9,21.5c-1.2,1.3-3,2.8-5.2,4.4c-2.2,1.6-4.8,3.3-7.7,5c-2.9,1.7-6,3.3-9.4,4.9c-3.4,1.6-6.8,3.1-10.4,4.3
			c-8.9,3.2-17.1,4.6-24.7,4.3c-7.5-0.3-14.3-2-20.2-5c-6-3-11.1-7.3-15.4-12.9C828.3,639.9,824.9,633.5,822.3,626.2z M884.4,592.1
			c-1-2.3-2.2-4.5-3.7-6.5c-1.5-2-3.3-3.6-5.3-4.9c-2.1-1.2-4.4-2-7-2.4c-2.6-0.3-5.5,0.1-8.8,1.2c-3.1,1.1-5.7,2.6-7.5,4.5
			c-1.9,1.9-3.3,4-4.1,6.2c-0.9,2.3-1.3,4.8-1.3,7.4c0,2.6,0.2,5.2,0.7,7.7L884.4,592.1z"/>
		<path id="XMLID_37_" d="M870.2,663.9c-0.7,0-1.3,0-1.9,0c-7.6-0.3-14.5-2-20.5-5.1c-6-3.1-11.2-7.4-15.6-13
			c-4.3-5.6-7.8-12.1-10.4-19.4c-3.1-8.8-4.5-17.1-4.2-24.7c0.4-7.6,2-14.5,4.8-20.5c2.9-6,6.8-11.2,11.7-15.5
			c4.9-4.3,10.5-7.6,16.6-9.7c14.1-5,27-4.7,38.3,1.1c11.3,5.7,20,17.1,26,33.9c0.6,1.6,1.2,3.4,1.7,5.5c0.6,2,1.1,3.8,1.5,5.3
			l-0.3,0.6l-63.2,22.4c2.6,5.1,6.8,8.5,12.4,10.1c5.8,1.7,12.8,1.1,20.7-1.7c5.1-1.8,10-4.1,14.6-6.8c4.6-2.7,8.2-5.3,10.8-7.7
			l0.8,0.1l11.9,21.5l-0.1,0.6c-1.3,1.3-3,2.8-5.3,4.5c-2.3,1.7-4.9,3.3-7.7,5c-2.9,1.7-6,3.3-9.4,4.9c-3.4,1.6-6.9,3.1-10.4,4.3
			C884.9,662.4,877.2,663.9,870.2,663.9z M869.7,553.4c-5.9,0-12.1,1.1-18.6,3.5c-5.9,2.1-11.4,5.3-16.3,9.6
			c-4.8,4.2-8.7,9.3-11.5,15.2c-2.8,5.9-4.4,12.6-4.7,20.1c-0.4,7.5,1,15.6,4.1,24.3l0,0c2.6,7.2,6,13.6,10.3,19.1
			c4.2,5.5,9.4,9.8,15.2,12.8c5.9,3,12.6,4.7,20,5c7.4,0.3,15.7-1.1,24.5-4.3c3.5-1.2,6.9-2.7,10.3-4.3c3.4-1.6,6.5-3.3,9.4-4.9
			c2.8-1.6,5.4-3.3,7.6-4.9c2.1-1.5,3.7-2.9,4.9-4.1l-11.4-20.6c-2.6,2.4-6.2,4.9-10.5,7.4c-4.6,2.7-9.6,5-14.8,6.8
			c-8.1,2.9-15.3,3.5-21.3,1.8c-6.1-1.7-10.6-5.5-13.3-11.1l0.3-0.7l63.3-22.5c-0.4-1.4-0.8-3.1-1.3-4.9c-0.6-2-1.1-3.8-1.7-5.4
			c-5.9-16.5-14.4-27.7-25.5-33.3C882.8,554.9,876.5,553.4,869.7,553.4z M847.5,605.7l-0.7-0.4c-0.5-2.5-0.7-5.2-0.7-7.8
			c0-2.7,0.4-5.2,1.3-7.5c0.9-2.3,2.3-4.5,4.3-6.4c1.9-1.9,4.5-3.5,7.7-4.6c3.3-1.2,6.4-1.6,9-1.2c2.7,0.4,5.1,1.2,7.2,2.5
			c2.1,1.3,4,3,5.5,5c1.5,2,2.8,4.3,3.8,6.6l-0.3,0.7L847.5,605.7z M866.5,578.6c-2.1,0-4.3,0.4-6.8,1.3c-3.1,1.1-5.5,2.6-7.3,4.4
			c-1.8,1.8-3.2,3.9-4,6.1c-0.9,2.2-1.3,4.6-1.3,7.2c0,2.4,0.2,4.7,0.6,7l36.1-12.8c-0.9-2.1-2.1-4.1-3.4-5.9
			c-1.4-1.9-3.2-3.6-5.2-4.8c-2-1.2-4.3-2-6.8-2.3C867.7,578.6,867.1,578.6,866.5,578.6z"/>
	</g>
	<g id="XMLID_35_">
		<path id="XMLID_25_" class="st0" d="M932,609.3c0-7.6,1.2-14.8,3.7-21.5c2.5-6.7,6-12.6,10.7-17.6c4.7-5,10.3-9,17-11.9
			c6.7-2.9,14.3-4.4,22.8-4.4c5.6,0,10.7,0.5,15.4,1.5c4.7,1,9.2,2.4,13.6,4.3l-6.2,23.8c-2.8-1.1-5.9-2-9.2-2.8
			c-3.3-0.8-7.1-1.2-11.2-1.2c-8.8,0-15.4,2.7-19.7,8.2c-4.3,5.5-6.5,12.7-6.5,21.6c0,9.5,2,16.8,6.1,22c4.1,5.2,11.2,7.8,21.3,7.8
			c3.6,0,7.5-0.3,11.6-1c4.1-0.7,7.9-1.7,11.4-3.2l4.2,24.4c-3.5,1.5-7.8,2.7-13,3.8c-5.2,1.1-10.9,1.6-17.2,1.6
			c-9.6,0-17.9-1.4-24.8-4.3c-6.9-2.9-12.6-6.8-17.1-11.7c-4.5-4.9-7.7-10.8-9.8-17.5C933,624.4,932,617.1,932,609.3z"/>
		<path id="XMLID_32_" d="M986.8,665.2c-9.6,0-18-1.5-25-4.3c-7-2.9-12.8-6.9-17.3-11.8c-4.5-5-7.8-10.9-9.9-17.7
			c-2.1-6.7-3.1-14.2-3.1-22c0-7.6,1.3-14.9,3.7-21.7c2.5-6.8,6.1-12.7,10.8-17.8c4.7-5,10.5-9.1,17.2-12c6.7-2.9,14.4-4.4,23-4.4
			c5.6,0,10.8,0.5,15.5,1.5c4.7,1,9.3,2.5,13.7,4.3l0.3,0.6l-6.2,23.8l-0.7,0.3c-2.8-1.1-5.8-2-9.1-2.8c-3.3-0.8-7-1.2-11.1-1.2
			c-8.6,0-15.1,2.7-19.3,8c-4.2,5.4-6.4,12.5-6.4,21.3c0,9.3,2,16.6,6,21.7c3.9,5,11,7.6,20.9,7.6c3.6,0,7.4-0.3,11.5-1
			c4.1-0.7,7.9-1.7,11.3-3.2l0.7,0.4l4.2,24.4l-0.3,0.5c-3.5,1.5-7.9,2.8-13.1,3.8C998.9,664.6,993.1,665.2,986.8,665.2z
			 M986.2,554.4c-8.4,0-16,1.5-22.6,4.4c-6.6,2.9-12.2,6.9-16.8,11.8c-4.6,4.9-8.2,10.8-10.6,17.4c-2.4,6.6-3.7,13.8-3.7,21.3
			c0,7.8,1,15.1,3.1,21.8c2,6.6,5.3,12.5,9.7,17.3c4.4,4.9,10.1,8.8,16.9,11.6c6.8,2.8,15.1,4.3,24.6,4.3c6.2,0,11.9-0.5,17.1-1.6
			c5-1,9.2-2.2,12.5-3.6l-4-23.4c-3.3,1.4-7,2.4-10.9,3c-4.1,0.7-8.1,1-11.7,1c-10.2,0-17.5-2.7-21.7-8c-4.1-5.3-6.2-12.8-6.2-22.3
			c0-9,2.2-16.4,6.6-21.9c4.4-5.6,11.2-8.4,20.1-8.4c4.2,0,8,0.4,11.3,1.2c3.1,0.8,6.1,1.6,8.7,2.6l6-22.8
			c-4.2-1.8-8.6-3.1-13.1-4.1C996.9,554.9,991.7,554.4,986.2,554.4z"/>
	</g>
	<g id="XMLID_31_">
		<path id="XMLID_1_" class="st0" d="M1037,661.9V511.5l29.8-4.8v50.4c2-0.7,4.6-1.3,7.7-1.9c3.1-0.6,6.2-0.9,9.1-0.9
			c8.5,0,15.6,1.2,21.3,3.5c5.7,2.3,10.2,5.6,13.6,9.9c3.4,4.3,5.8,9.3,7.2,15.2c1.4,5.9,2.1,12.4,2.1,19.6v59.4H1098v-55.8
			c0-9.6-1.2-16.4-3.7-20.4c-2.5-4-7-6-13.7-6c-2.7,0-5.2,0.2-7.5,0.7c-2.3,0.5-4.4,1-6.3,1.5v80H1037z"/>
		<path id="XMLID_28_" d="M1127.8,662.4H1098l-0.5-0.5v-55.8c0-9.5-1.2-16.2-3.6-20.1c-2.4-3.8-6.8-5.8-13.3-5.8
			c-2.6,0-5.1,0.2-7.4,0.7c-2.2,0.4-4.1,0.9-5.9,1.4v79.6l-0.5,0.5H1037l-0.5-0.5V511.5l0.4-0.5l29.8-4.8l0.6,0.5v49.7
			c1.9-0.6,4.3-1.2,7.1-1.7c3.1-0.6,6.2-0.9,9.2-0.9c8.6,0,15.8,1.2,21.5,3.5c5.7,2.4,10.4,5.7,13.8,10.1c3.4,4.3,5.9,9.5,7.3,15.4
			c1.4,5.9,2.1,12.5,2.1,19.7v59.4L1127.8,662.4z M1098.5,661.4h28.8v-58.9c0-7.1-0.7-13.7-2.1-19.5c-1.4-5.8-3.8-10.8-7.1-15
			c-3.3-4.2-7.8-7.5-13.4-9.7c-5.6-2.3-12.7-3.5-21.1-3.5c-2.9,0-5.9,0.3-9,0.9c-3.1,0.6-5.7,1.2-7.6,1.9l-0.7-0.5v-49.8l-28.8,4.6
			v149.5h28.8v-79.5l0.4-0.5c1.9-0.5,4-1,6.3-1.5c2.4-0.5,4.9-0.7,7.6-0.7c6.8,0,11.6,2.1,14.1,6.2c2.5,4.1,3.8,11,3.8,20.7V661.4z"
			/>
	</g>
</g>
</svg>
