<svg xmlns="http://www.w3.org/2000/svg" viewBox="0 0 1080 1080"><defs><style>.\31 94d2881-45be-432a-ab28-9ae61aa7b998{fill:#009688;}.\33 ca84d66-9285-4cdf-9ed4-c956f3cc4ec0{font-size:53.33px;font-family:Ubuntu, Ubuntu;letter-spacing:1.11em;}.\33 ca84d66-9285-4cdf-9ed4-c956f3cc4ec0,.\36 d6d0aae-af2a-4d0b-9e3a-98a590e7e469{fill:#fff;}.ddb101a2-9f15-40f7-81a2-effafaa4b6b6{letter-spacing:1.11em;}</style></defs><title>Asset 1</title><g id="771f9b40-615f-4bb0-a234-4662f03838bb" data-name="Layer 2"><g id="c2d75b75-4a47-418c-a7a9-644eca6021bd" data-name="maning tech"><rect class="194d2881-45be-432a-ab28-9ae61aa7b998" width="1080" height="1080"/><text class="3ca84d66-9285-4cdf-9ed4-c956f3cc4ec0" transform="translate(488.92 829.92)">t<tspan class="ddb101a2-9f15-40f7-81a2-effafaa4b6b6" x="80.38" y="0">ech</tspan></text><path class="6d6d0aae-af2a-4d0b-9e3a-98a590e7e469" d="M256.3,716.21q0-17.51-4.5-24.81t-15.45-7.29q-3.4,0-7,.36c-2.43.25-4.79.53-7.05.85V766a18.12,18.12,0,0,1-18.12,18.12h0A18.12,18.12,0,0,1,186,766V660.52q4.62-1.21,10.82-2.56T210,655.53q6.93-1.1,14.23-1.7t14.35-.61q13.86,0,22.5,3.53a51.05,51.05,0,0,1,14.23,8.39,62.14,62.14,0,0,1,17.87-8.76,62.86,62.86,0,0,1,18.61-3.16q15.31,0,25.17,4.26a37.91,37.91,0,0,1,15.69,12,45.56,45.56,0,0,1,8,18.49,119.26,119.26,0,0,1,2.19,23.83V766a18.12,18.12,0,0,1-18.12,18.12h0A18.12,18.12,0,0,1,326.58,766V716.21q0-17.51-4.49-24.81t-15.45-7.29a32.34,32.34,0,0,0-8.15,1.46,31.59,31.59,0,0,0-8.63,3.65A55.91,55.91,0,0,1,292.05,701q.48,6.21.48,13.26V766a18.11,18.11,0,0,1-18.11,18.12h0A18.11,18.11,0,0,1,256.3,766Z"/><path class="6d6d0aae-af2a-4d0b-9e3a-98a590e7e469" d="M421,653.22q16.05,0,26.76,3.65a41.64,41.64,0,0,1,17.14,10.45A38.46,38.46,0,0,1,474,683.86a81.8,81.8,0,0,1,2.68,21.65v75.4q-7.78,1.7-21.65,4a208,208,0,0,1-33.56,2.31,106.39,106.39,0,0,1-22.5-2.19,48.87,48.87,0,0,1-17.39-7.17,32.91,32.91,0,0,1-11.19-13q-3.89-8-3.89-19.7,0-11.17,4.5-19a34.66,34.66,0,0,1,12-12.4,54.38,54.38,0,0,1,17.27-6.69A97.34,97.34,0,0,1,420.46,705a115.93,115.93,0,0,1,12.53.61,57.31,57.31,0,0,1,8.88,1.58v-3.4q0-9.24-5.6-14.84t-19.45-5.59a123.94,123.94,0,0,0-18.24,1.34q-3.56.53-6.72,1.22a8.66,8.66,0,0,1-10.38-7.13l-1.86-11.74a8.68,8.68,0,0,1,6.58-9.82l.09,0q4.75-1.1,10.34-1.94t11.8-1.46Q414.63,653.21,421,653.22Zm2.92,106c3.56,0,7-.08,10.21-.24a71.68,71.68,0,0,0,7.79-.73V730.8q-2.19-.48-6.57-1a74.24,74.24,0,0,0-8-.49,72.67,72.67,0,0,0-9.6.61,25.39,25.39,0,0,0-7.91,2.31,13.66,13.66,0,0,0-5.35,4.62,12.87,12.87,0,0,0-1.94,7.3q0,8.52,5.71,11.8T423.87,759.26Z"/><path class="6d6d0aae-af2a-4d0b-9e3a-98a590e7e469" d="M488.81,660.52a200.28,200.28,0,0,1,23.83-5,196,196,0,0,1,30.65-2.31q16.29,0,27.11,4.26a40.74,40.74,0,0,1,17.15,12,47.07,47.07,0,0,1,9,18.49,98.54,98.54,0,0,1,2.68,23.83V766a18.12,18.12,0,0,1-18.12,18.12h0A18.12,18.12,0,0,1,563,766V716.21q0-17.51-4.62-24.81t-17.27-7.29c-2.6,0-5.35.12-8.27.36s-5.52.53-7.78.85V766a18.12,18.12,0,0,1-18.12,18.12h0A18.12,18.12,0,0,1,488.81,766Z"/><rect class="6d6d0aae-af2a-4d0b-9e3a-98a590e7e469" x="611.38" y="653.22" width="36.77" height="129.82" rx="18.39" ry="18.39"/><path class="6d6d0aae-af2a-4d0b-9e3a-98a590e7e469" d="M661,660.52a200.28,200.28,0,0,1,23.83-5,195.9,195.9,0,0,1,30.65-2.31q16.29,0,27.11,4.26a40.74,40.74,0,0,1,17.15,12,47.2,47.2,0,0,1,9,18.49,98.56,98.56,0,0,1,2.67,23.83V766a18.11,18.11,0,0,1-18.11,18.12h0A18.12,18.12,0,0,1,735.18,766V716.21q0-17.51-4.63-24.81t-17.26-7.29c-2.6,0-5.35.12-8.27.36s-5.52.53-7.79.85V766a18.11,18.11,0,0,1-18.11,18.12h0A18.11,18.11,0,0,1,661,766Z"/><path class="6d6d0aae-af2a-4d0b-9e3a-98a590e7e469" d="M894,768q0,31.37-15.93,46.57t-49.25,15.2a134.55,134.55,0,0,1-23.35-2.06c-2.39-.43-4.72-.89-7-1.4a15.3,15.3,0,0,1-11.74-18h0A15.18,15.18,0,0,1,805,796.52c1,.24,2,.47,3,.68a104.88,104.88,0,0,0,21.28,1.95q15.56,0,22-6.81t6.44-17.51v-4.62a58.31,58.31,0,0,1-12,4,64.06,64.06,0,0,1-13.49,1.34q-26.52,0-40.62-15.69T777.49,716a71.89,71.89,0,0,1,4.38-25.66,54.65,54.65,0,0,1,12.77-19.82,57,57,0,0,1,20.55-12.77,78.82,78.82,0,0,1,27.49-4.5q6.55,0,13.49.61c4.63.4,9.2.93,13.74,1.58s8.88,1.42,13,2.31,7.83,1.82,11.07,2.8Zm-79.53-52q0,30.4,24.57,30.4a36.42,36.42,0,0,0,10.46-1.46,39.4,39.4,0,0,0,8.26-3.4V683.62c-1.78-.32-3.89-.61-6.32-.85s-5.27-.36-8.51-.36q-14.35,0-21.41,9.48T814.46,716Z"/><g id="94de51c9-bb8f-40ab-a968-1302e0cc0806" data-name="&lt;Group&gt;"><g id="c98cf9ad-bfb3-4e3e-a016-9d02630b20fb" data-name="&lt;Group&gt;"><path class="6d6d0aae-af2a-4d0b-9e3a-98a590e7e469" d="M644.43,648c74.1-37.87,122.23-115.66,124.05-198.7,1.72-77.81-37.79-151.53-102-194.91-31.79-21.48-68.87-33.69-106.92-37.29-39-3.7-78,3.81-113.71,19.46C378.1,266.3,326.91,332.18,315,405.2c-6.75,41.43-3.36,84.39,12.54,123.46a235.13,235.13,0,0,0,79,101.46A210.11,210.11,0,0,0,435.57,648c11.07,5.66,26.32,3.25,32.55-8.54,5.75-10.88,3.3-26.5-8.53-32.56a209.09,209.09,0,0,1-29-17.9c-.79-.58-1.55-1.21-2.35-1.77,4.89,3.38,2.43,1.92,1.33,1-1.9-1.55-3.81-3.09-5.67-4.68q-5.3-4.53-10.29-9.42c-6.51-6.37-12.24-13.28-18.1-20.24,4.56,5.42-.14-.27-1.14-1.65q-1.94-2.7-3.79-5.44-4.11-6.12-7.79-12.53-3.12-5.48-5.91-11.11-1.49-3-2.86-6.05c-.41-.9-.8-1.81-1.21-2.72-2.05-4.56,1.75,4.51.1.18a228.64,228.64,0,0,1-8.75-27.17q-1.64-6.66-2.82-13.42c-.31-1.75-.12-4.55-1-6.07,1.92,3.41.52,4.14.15,1-.18-1.53-.34-3.08-.49-4.62a206.21,206.21,0,0,1-.75-28q.25-6.26.88-12.49c.12-1.15,1-8.18.39-3.69s.05-.18.17-.91c.21-1.35.43-2.7.67-4A204.57,204.57,0,0,1,367,391.47q1.75-5.78,3.85-11.43c.77-2.08,1.6-4.14,2.41-6.21.59-1.49,2-3.57-.85,2,.6-1.16,1.07-2.45,1.61-3.64a204.22,204.22,0,0,1,11.42-21.6q3.07-5.07,6.43-9.94,1.68-2.43,3.43-4.82c.52-.7,1.05-1.4,1.56-2.1,2.76-3.76-3.24,4-.51.66A226.12,226.12,0,0,1,413,315.87q4.2-4.14,8.62-8c1.32-1.16,2.64-2.29,4-3.41l2.54-2.09c.67-.54,4.55-3.57,1.19-1s2.14-1.56,2.84-2.07c1.42-1,2.86-2,4.3-3q5.43-3.72,11.09-7.08A218.59,218.59,0,0,1,469.27,278c1.59-.73,4.85-1.63-1.41.56.83-.29,1.65-.68,2.46-1,1.86-.75,3.73-1.46,5.61-2.15q6-2.19,12.08-4a205.56,205.56,0,0,1,25.11-5.75l2.7-.42c4-.63-1.94.27-2.24.28,2.28-.13,4.59-.55,6.86-.76q6.6-.63,13.22-.83a207.38,207.38,0,0,1,25.9.83c2.06.19,4.12.44,6.17.68,3.34.38-6.4-1-1.55-.2l2.7.42q6.72,1.11,13.36,2.64a203.16,203.16,0,0,1,23.2,6.88q3.13,1.14,6.24,2.38c.81.32,1.63.71,2.46,1-6-2.1-3.44-1.48-2-.83,4,1.82,8,3.67,12,5.71A204.46,204.46,0,0,1,643,295.88q2.44,1.67,4.84,3.4c.89.64,6.26,4.7,2.84,2.07s1.87,1.53,2.72,2.23c1.68,1.39,3.35,2.81,5,4.25A207,207,0,0,1,676,325.36c2.62,2.94,5.12,6,7.6,9,1,1.2,2.19,3.5-1.31-1.71.49.72,1.07,1.41,1.58,2.1,1.31,1.75,2.58,3.53,3.83,5.33a205,205,0,0,1,13,21.38q2.78,5.26,5.24,10.7c.37.81.72,1.62,1.08,2.42,1.61,3.54-.74-1.73-.83-2,.77,2.3,1.84,4.54,2.69,6.82a202.79,202.79,0,0,1,7.25,23.76q1.44,6,2.5,12c.36,2,.66,4,1,6.08.52,3.31-.75-6.44-.21-1.55.15,1.37.32,2.74.46,4.12a207,207,0,0,1,1,25.52q-.15,6.82-.74,13.63c-.2,2.26-1,5.22-.8,7.46,0-.4.88-6,.24-1.88q-.33,2.2-.69,4.41a203.42,203.42,0,0,1-6.34,26.44q-1.95,6.24-4.29,12.35c-.63,1.64-3.7,8.33-.59,1.68-1,2.18-1.94,4.4-3,6.58a205.18,205.18,0,0,1-13.23,23.78q-3.5,5.4-7.31,10.56c-.56.76-1.16,1.51-1.71,2.28,3.53-5,2-2.55,1.1-1.44-1.65,2-3.29,4.05-5,6A209.19,209.19,0,0,1,660.21,580c-3.18,2.86-6.46,5.59-9.78,8.27-3.09,2.5,1.08-.91,1.44-1.09a24.1,24.1,0,0,0-2.86,2.13q-3.15,2.32-6.41,4.52a210,210,0,0,1-22.19,13.06c-11.11,5.68-15.23,22.18-8.54,32.56,7.31,11.33,20.68,14.61,32.56,8.54Z"/></g><g id="a0a7657b-65e2-4f12-a522-350f5541c502" data-name="&lt;Group&gt;"><g id="1c217cf4-8a7b-45bd-b9fc-f7d08c139046" data-name="&lt;Group&gt;"><path class="6d6d0aae-af2a-4d0b-9e3a-98a590e7e469" d="M423.78,399.55V627.48c0,12.45,11,24.37,23.8,23.8s23.79-10.46,23.79-23.8V399.55c0-12.45-10.94-24.37-23.79-23.8s-23.8,10.46-23.8,23.8V627.48c0,12.45,11,24.37,23.8,23.8s23.79-10.46,23.79-23.8V399.55c0-12.45-10.94-24.37-23.79-23.8S423.78,386.21,423.78,399.55Z"/></g><g id="c8a952cf-5b19-4289-b1e2-3ae4c7482db7" data-name="&lt;Group&gt;"><path class="6d6d0aae-af2a-4d0b-9e3a-98a590e7e469" d="M551.33,465.57l-76.07-72.5L464.4,382.72c-9-8.59-24.81-9.62-33.65,0-8.55,9.31-9.62,24.48,0,33.65l76.06,72.5,10.86,10.35c9,8.59,24.82,9.63,33.66,0,8.54-9.31,9.62-24.48,0-33.65l-76.07-72.5L464.4,382.72c-9-8.59-24.81-9.62-33.65,0-8.55,9.31-9.62,24.48,0,33.65l76.06,72.5,10.86,10.35c9,8.59,24.82,9.63,33.66,0C559.87,489.91,561,474.74,551.33,465.57Z"/></g><g id="4084552c-2c5f-4509-8eae-7769ef7d7237" data-name="&lt;Group&gt;"><path class="6d6d0aae-af2a-4d0b-9e3a-98a590e7e469" d="M656.21,627.48V399.55c0-20-26.4-32.17-40.62-16.83L526.35,479l-12.77,13.77c-8.47,9.13-9.71,24.74,0,33.65,9.2,8.45,24.61,9.75,33.65,0l89.25-96.24,12.77-13.77-40.62-16.82V627.48c0,12.45,11,24.37,23.8,23.8s23.79-10.46,23.79-23.8Z"/></g></g></g></g></g></svg>