<svg id="9091cb23-af6c-47d0-a659-8b7e15c34736" data-name="Layer 1" xmlns="http://www.w3.org/2000/svg" viewBox="0 0 424 422.8"><defs><style>.dbaf6405-28e0-48ab-b3ae-27628cc44a39{fill:#009688;}.c9f4b517-c2d0-4881-9dc3-327c72bf90da{fill:#0c6b62;}.\37 e4e5cfa-ce0e-40d7-8ad5-1bfa30b00c41{fill:none;}</style></defs><title>logotipo</title><path class="dbaf6405-28e0-48ab-b3ae-27628cc44a39" d="M256,44.6c-106.2,0-192.3,86.09-192.3,192.3A191.68,191.68,0,0,0,119,371.82q.45-8.29.92-16.82,2-35.39,4.3-70.58t5.38-67.72q1.21-13,2.52-25c2.09-19.25,17.45-33.77,35.71-33.77,13.65,0,26.1,8.2,32.19,21.15q2.21,4.7,4.57,9.86,8.44,18.46,17.62,39.95t18.16,43.95L257.25,315,256,311.91Z" transform="translate(-44 -44.6)"/><path class="c9f4b517-c2d0-4881-9dc3-327c72bf90da" d="M256,44.6V311.91l1.25,3.12,16.91-42.21q9-22.45,18.15-43.95t17.62-39.95q2.63-5.76,5.07-10.93c5.81-12.31,17.67-20.07,30.65-20.07a33.11,33.11,0,0,1,22.8,9.22,37.16,37.16,0,0,1,11.25,23q1.4,12.71,2.7,26.57,3,32.53,5.38,67.72T392.1,355q.48,8.53.91,16.81A191.64,191.64,0,0,0,448.3,236.9C448.3,130.69,362.2,44.6,256,44.6Z" transform="translate(-44 -44.6)"/><path class="7e4e5cfa-ce0e-40d7-8ad5-1bfa30b00c41" d="M374.34,424a6.88,6.88,0,0,0-2.2-1.74,7.16,7.16,0,0,0-3.29-.68,7.58,7.58,0,0,0-3.26.64,6.74,6.74,0,0,0-2.27,1.7,7.65,7.65,0,0,0-1.4,2.46,16.12,16.12,0,0,0-.72,2.84h14.92a11.71,11.71,0,0,0-.49-2.8A7,7,0,0,0,374.34,424Z" transform="translate(-44 -44.6)"/><path class="7e4e5cfa-ce0e-40d7-8ad5-1bfa30b00c41" d="M129,436a22.45,22.45,0,0,0-3,.19,7.83,7.83,0,0,0-2.46.72,4.21,4.21,0,0,0-1.67,1.44,4,4,0,0,0-.61,2.27,3.87,3.87,0,0,0,1.78,3.67,9.83,9.83,0,0,0,4.88,1q1.67,0,3.18-.08a21.8,21.8,0,0,0,2.42-.23v-8.56q-.68-.15-2-.3A22.86,22.86,0,0,0,129,436Z" transform="translate(-44 -44.6)"/><path class="7e4e5cfa-ce0e-40d7-8ad5-1bfa30b00c41" d="M275.31,432q0,9.47,7.65,9.47a11.27,11.27,0,0,0,3.26-.45,12.34,12.34,0,0,0,2.58-1.06v-18q-.83-.15-2-.26t-2.65-.11q-4.47,0-6.67,3a11,11,0,0,0-1.9,4.55c-.08.42-.14.84-.19,1.28A16.57,16.57,0,0,0,275.31,432Z" transform="translate(-44 -44.6)"/><path class="dbaf6405-28e0-48ab-b3ae-27628cc44a39" d="M72.47,429l1.25,3-3.57-8.41q-1.9-4.47-3.84-8.75t-3.72-8q-1.79-3.67-3.15-6.17H48.17q-.76,5.23-1.4,11.7t-1.14,13.48q-.49,7-.91,14.05c.21-3.64.46-7.28.71-10.91H56.51c.21-3.54.45-7.1.74-10.68l3,7q1.67,3.86,3.3,7.73c-.58-1.36-1.17-2.73-1.75-4.09Z" transform="translate(-44 -44.6)"/><path class="dbaf6405-28e0-48ab-b3ae-27628cc44a39" d="M102.21,439.9q-.42-7-.91-14.05t-1.14-13.48q-.64-6.48-1.4-11.7H88q-1.37,2.5-3.15,6.17t-3.72,8q-1.94,4.28-3.83,8.75L73.73,432,75,429h10.1c.52-1.21,1-2.42,1.56-3.64l3-7c.3,3.58.53,7.14.74,10.68H101.5C101.75,432.63,102,436.26,102.21,439.9Z" transform="translate(-44 -44.6)"/><path class="dbaf6405-28e0-48ab-b3ae-27628cc44a39" d="M140.68,416.65a12.94,12.94,0,0,0-5.34-3.26,26.14,26.14,0,0,0-8.33-1.14q-2,0-3.9.19t-3.67.45q-1.74.27-3.22.61t-2.46.64l1.44,9.09a24.41,24.41,0,0,1,4.85-1.17,38.72,38.72,0,0,1,5.68-.42q4.32,0,6.06,1.74a6.25,6.25,0,0,1,1.74,4.62v1h10.83v-.45a25.45,25.45,0,0,0-.83-6.74A12,12,0,0,0,140.68,416.65Z" transform="translate(-44 -44.6)"/><path class="dbaf6405-28e0-48ab-b3ae-27628cc44a39" d="M133.19,429l.33.07a17.44,17.44,0,0,0-2.76-.49,35.81,35.81,0,0,0-3.9-.19,30.17,30.17,0,0,0-6.29.64l.24,0Z" transform="translate(-44 -44.6)"/><path class="dbaf6405-28e0-48ab-b3ae-27628cc44a39" d="M188.14,423.24a14.62,14.62,0,0,0-2.8-5.76,12.71,12.71,0,0,0-5.34-3.75,23.29,23.29,0,0,0-8.44-1.33,61,61,0,0,0-9.54.72,63.28,63.28,0,0,0-7.42,1.55V429h11.29v-6.59q1.06-.15,2.42-.26t2.58-.11q3.94,0,5.38,2.27a11,11,0,0,1,1.3,4.7h11.38A29.07,29.07,0,0,0,188.14,423.24Z" transform="translate(-44 -44.6)"/><path class="dbaf6405-28e0-48ab-b3ae-27628cc44a39" d="M177.65,430.48v0Z" transform="translate(-44 -44.6)"/><rect class="dbaf6405-28e0-48ab-b3ae-27628cc44a39" x="155.19" y="368.72" width="11.29" height="15.68"/><path class="dbaf6405-28e0-48ab-b3ae-27628cc44a39" d="M204.8,395.14a6.9,6.9,0,0,0-4.73,1.78,6.95,6.95,0,0,0,0,9.77,7.19,7.19,0,0,0,9.47,0,7,7,0,0,0,0-9.77A6.91,6.91,0,0,0,204.8,395.14Z" transform="translate(-44 -44.6)"/><path class="dbaf6405-28e0-48ab-b3ae-27628cc44a39" d="M244.15,430.48v0Z" transform="translate(-44 -44.6)"/><path class="dbaf6405-28e0-48ab-b3ae-27628cc44a39" d="M254.64,423.24a14.62,14.62,0,0,0-2.8-5.76,12.71,12.71,0,0,0-5.34-3.75,23.29,23.29,0,0,0-8.44-1.33,61,61,0,0,0-9.54.72,63.28,63.28,0,0,0-7.42,1.55V429h11.29v-6.59q1.06-.15,2.42-.26t2.58-.11q3.94,0,5.38,2.27A11,11,0,0,1,244,429h11.38A29.07,29.07,0,0,0,254.64,423.24Z" transform="translate(-44 -44.6)"/><path class="dbaf6405-28e0-48ab-b3ae-27628cc44a39" d="M292.58,413.09q-2.12-.3-4.28-.49t-4.2-.19a24.52,24.52,0,0,0-8.56,1.4,17.77,17.77,0,0,0-6.4,4,17,17,0,0,0-4,6.17,21.58,21.58,0,0,0-1.3,6.34c0-.44.07-.87.12-1.3h11.63a11,11,0,0,1,1.9-4.55q2.2-3,6.67-3,1.51,0,2.65.11t2,.26V429h11.29V414.68q-1.52-.45-3.45-.87T292.58,413.09Z" transform="translate(-44 -44.6)"/><path class="dbaf6405-28e0-48ab-b3ae-27628cc44a39" d="M275.31,432a16.57,16.57,0,0,1,.11-1.67A14.2,14.2,0,0,0,275.31,432Z" transform="translate(-44 -44.6)"/><polygon class="dbaf6405-28e0-48ab-b3ae-27628cc44a39" points="306.37 356.07 262.9 356.07 262.9 366.14 278.73 366.14 278.73 384.4 290.54 384.4 290.54 366.14 306.37 366.14 306.37 356.07"/><path class="dbaf6405-28e0-48ab-b3ae-27628cc44a39" d="M361.2,429.23a16.12,16.12,0,0,1,.72-2.84,7.65,7.65,0,0,1,1.4-2.46,6.74,6.74,0,0,1,2.27-1.7,7.58,7.58,0,0,1,3.26-.64,7.16,7.16,0,0,1,3.29.68,6.88,6.88,0,0,1,2.2,1.74,7,7,0,0,1,1.29,2.42,11.71,11.71,0,0,1,.49,2.8c0-.08,0-.15,0-.23h10.73c-.51-4.9-2.07-8.76-4.72-11.55q-4.92-5.19-13.41-5.19a19.07,19.07,0,0,0-7.08,1.36,17.79,17.79,0,0,0-6.1,4,19.85,19.85,0,0,0-4.28,6.63A21.15,21.15,0,0,0,350,429h11.28C361.24,429.07,361.22,429.15,361.2,429.23Z" transform="translate(-44 -44.6)"/><path class="dbaf6405-28e0-48ab-b3ae-27628cc44a39" d="M349.71,431.19q.09-1.13.26-2.19C349.85,429.71,349.76,430.44,349.71,431.19Z" transform="translate(-44 -44.6)"/><path class="dbaf6405-28e0-48ab-b3ae-27628cc44a39" d="M386.83,429q.09.85.14,1.73C386.94,430.14,386.89,429.57,386.83,429Z" transform="translate(-44 -44.6)"/><path class="dbaf6405-28e0-48ab-b3ae-27628cc44a39" d="M393.85,433.24q0-1.09.09-2.15Q393.85,432.15,393.85,433.24Z" transform="translate(-44 -44.6)"/><path class="dbaf6405-28e0-48ab-b3ae-27628cc44a39" d="M393.95,431c.06-.69.15-1.37.26-2Q394,430,393.95,431Z" transform="translate(-44 -44.6)"/><path class="dbaf6405-28e0-48ab-b3ae-27628cc44a39" d="M405.5,431a17.13,17.13,0,0,0-.14,2.23A18.12,18.12,0,0,1,405.5,431Z" transform="translate(-44 -44.6)"/><path class="dbaf6405-28e0-48ab-b3ae-27628cc44a39" d="M405.9,429a10.85,10.85,0,0,1,1.92-3.94q2.46-3.1,7.46-3.11a18.21,18.21,0,0,1,4.24.45,28.55,28.55,0,0,1,3.48,1.06l2.35-9a28.38,28.38,0,0,0-5.15-1.63,27.89,27.89,0,0,0-5.83-.57,21.27,21.27,0,0,0-8.63,1.67,19.06,19.06,0,0,0-10.49,11.17,22.55,22.55,0,0,0-1,3.9H405.9Z" transform="translate(-44 -44.6)"/><path class="dbaf6405-28e0-48ab-b3ae-27628cc44a39" d="M468,430.66a32,32,0,0,0-.8-7.42,14.5,14.5,0,0,0-2.73-5.76,12.53,12.53,0,0,0-5.15-3.75,21.34,21.34,0,0,0-8.07-1.33,18.26,18.26,0,0,0-3.45.34,23.42,23.42,0,0,0-2.92.72V394.38l-11.29,1.82V429H444.9v-6.14q1.06-.3,2.39-.57a14.5,14.5,0,0,1,2.84-.26q3.79,0,5.19,2.27a11.21,11.21,0,0,1,1.26,4.7H468C468,429.55,468,430.1,468,430.66Z" transform="translate(-44 -44.6)"/><path class="dbaf6405-28e0-48ab-b3ae-27628cc44a39" d="M456.68,430.48v-.12S456.68,430.44,456.68,430.48Z" transform="translate(-44 -44.6)"/><path class="c9f4b517-c2d0-4881-9dc3-327c72bf90da" d="M44.72,439.9q-.42,7-.72,13.25H55.51q.23-7.65.61-16.66c.1-2.49.24-5,.39-7.5H45.43C45.18,432.63,44.93,436.26,44.72,439.9Z" transform="translate(-44 -44.6)"/><path class="c9f4b517-c2d0-4881-9dc3-327c72bf90da" d="M73.73,432l-1.25-3H61.85c.58,1.36,1.17,2.73,1.75,4.09q1.63,3.86,3.15,7.38t2.58,6h8.26q1.06-2.5,2.58-6t3.15-7.38c.58-1.36,1.17-2.73,1.75-4.09H75Z" transform="translate(-44 -44.6)"/><path class="c9f4b517-c2d0-4881-9dc3-327c72bf90da" d="M101.5,429H90.42c.15,2.51.29,5,.39,7.5q.38,9,.61,16.66h11.51q-.3-6.21-.72-13.25C102,436.26,101.75,432.63,101.5,429Z" transform="translate(-44 -44.6)"/><path class="c9f4b517-c2d0-4881-9dc3-327c72bf90da" d="M133.53,429.07l-.33-.07H120.82l-.24,0a16.94,16.94,0,0,0-5.38,2.08,10.79,10.79,0,0,0-3.75,3.86,11.62,11.62,0,0,0-1.4,5.91,14,14,0,0,0,1.21,6.13,10.22,10.22,0,0,0,3.48,4.05,15.19,15.19,0,0,0,5.42,2.23,33.06,33.06,0,0,0,7,.68,64.84,64.84,0,0,0,10.45-.72q4.32-.72,6.74-1.25V429H133.53Zm0,15.91a21.8,21.8,0,0,1-2.42.23q-1.52.08-3.18.08a9.83,9.83,0,0,1-4.88-1,3.87,3.87,0,0,1-1.78-3.67,4,4,0,0,1,.61-2.27,4.21,4.21,0,0,1,1.67-1.44,7.83,7.83,0,0,1,2.46-.72,22.45,22.45,0,0,1,3-.19,22.86,22.86,0,0,1,2.5.15q1.36.15,2,.3Z" transform="translate(-44 -44.6)"/><rect class="c9f4b517-c2d0-4881-9dc3-327c72bf90da" x="110.58" y="384.4" width="11.29" height="24.16"/><path class="c9f4b517-c2d0-4881-9dc3-327c72bf90da" d="M188.93,429H177.54c0,.43.07.89.1,1.36v.12c0,.49,0,1,0,1.55v21.13H189V430.66c0-.57,0-1.12,0-1.67Z" transform="translate(-44 -44.6)"/><rect class="c9f4b517-c2d0-4881-9dc3-327c72bf90da" x="155.19" y="384.4" width="11.29" height="24.16"/><rect class="c9f4b517-c2d0-4881-9dc3-327c72bf90da" x="177.08" y="384.4" width="11.29" height="24.16"/><path class="c9f4b517-c2d0-4881-9dc3-327c72bf90da" d="M255.43,429H244c0,.43.07.89.1,1.36v.12c0,.49,0,1,0,1.55v21.13h11.29V430.66c0-.57,0-1.12,0-1.67Z" transform="translate(-44 -44.6)"/><path class="c9f4b517-c2d0-4881-9dc3-327c72bf90da" d="M288.79,439.9a12.34,12.34,0,0,1-2.58,1.06,11.27,11.27,0,0,1-3.26.45q-7.65,0-7.65-9.47a14.2,14.2,0,0,1,.11-1.67c.05-.44.11-.86.19-1.28H264c0,.43-.09.86-.12,1.3s-.07,1.09-.07,1.65q0,8.79,4.39,13.67t12.65,4.88a19.91,19.91,0,0,0,4.2-.42,18,18,0,0,0,3.75-1.25v1.44a7.62,7.62,0,0,1-2,5.45q-2,2.12-6.85,2.12a32.76,32.76,0,0,1-6.63-.61,33.16,33.16,0,0,1-5.57-1.67l-2,9.47a45.26,45.26,0,0,0,6.74,1.7,41.65,41.65,0,0,0,7.27.64q10.38,0,15.34-4.73t5-14.5V429H288.79Z" transform="translate(-44 -44.6)"/><rect class="c9f4b517-c2d0-4881-9dc3-327c72bf90da" x="278.73" y="384.4" width="11.82" height="24.16"/><path class="c9f4b517-c2d0-4881-9dc3-327c72bf90da" d="M386.83,429H376.1c0,.08,0,.15,0,.23H361.2c0-.08,0-.15,0-.23H350q-.17,1.06-.26,2.19c-.06.76-.09,1.54-.09,2.35a26,26,0,0,0,1.25,8.18,17.27,17.27,0,0,0,3.86,6.55,18.22,18.22,0,0,0,6.59,4.36,25.14,25.14,0,0,0,9.36,1.59,39.57,39.57,0,0,0,4.24-.23q2.12-.23,4-.57a31.84,31.84,0,0,0,3.37-.79,15.59,15.59,0,0,0,2.42-.91l-1.51-9.16a23,23,0,0,1-4.89,1.4,32.62,32.62,0,0,1-6.1.57,13.1,13.1,0,0,1-7.73-2A7.5,7.5,0,0,1,361.2,437h25.6q.08-.91.15-2.08c0-.78.08-1.5.08-2.16s0-1.34-.06-2S386.89,429.57,386.83,429Z" transform="translate(-44 -44.6)"/><path class="c9f4b517-c2d0-4881-9dc3-327c72bf90da" d="M420.13,444.15a27.62,27.62,0,0,1-4.39.38q-5.76,0-8.07-3t-2.31-8.33a17.13,17.13,0,0,1,.14-2.23,15.14,15.14,0,0,1,.4-2H394.21c-.12.67-.2,1.35-.26,2v.05q-.09,1.06-.09,2.15a28.09,28.09,0,0,0,1.17,8.29,17.25,17.25,0,0,0,3.71,6.63,17.7,17.7,0,0,0,6.48,4.43,24.51,24.51,0,0,0,9.39,1.63,32.48,32.48,0,0,0,6.51-.61,26.43,26.43,0,0,0,4.92-1.44l-1.59-9.24A18.61,18.61,0,0,1,420.13,444.15Z" transform="translate(-44 -44.6)"/><rect class="c9f4b517-c2d0-4881-9dc3-327c72bf90da" x="389.61" y="384.4" width="11.29" height="24.16"/><path class="c9f4b517-c2d0-4881-9dc3-327c72bf90da" d="M468,429H456.58c0,.43.07.89.1,1.36v.12c0,.49,0,1,0,1.55v21.13H468V430.66C468,430.1,468,429.55,468,429Z" transform="translate(-44 -44.6)"/></svg>